PathFileType	4	(X/Y/Z)	Patient4_TMGait_0pt2_03_right_15.trc.trc
DataRate	CameraRate	NumFrames	NumMarkers	Units	OrigDataRate	OrigDataStartFrame	OrigNumFrames
46.357615894040	46.357615894040	5	33	mm	46.357615894040	18	       141
Frame#	Time	Sacral			L.Shoulder			Chest			R.Shoulder			Neck			R.ASIS			L.ASIS			R.Thigh.Superior			R.Thigh.Lateral			R.Thigh.Inferior			R.Patella			L.Thigh.Superior			L.Thigh.Lateral			L.Thigh.Inferior			L.Patella			L.Shank.Superior			L.Shank.Lateral			L.Shank.Inferior			R.Shank.Superior			R.Shank.Lateral			R.Shank.Inferior			R.Heel			R.Midfoot.Superior			R.Midfoot.Lateral			R.Toe			L.Heel			L.Midfoot.Lateral			L.Midfoot.Superior			L.Toe			L.Elbow			L.Wrist			R.Elbow			R.Wrist			
		X1	Y1	Z1	X2	Y2	Z2	X3	Y3	Z3	X4	Y4	Z4	X5	Y5	Z5	X6	Y6	Z6	X7	Y7	Z7	X8	Y8	Z8	X9	Y9	Z9	X10	Y10	Z10	X11	Y11	Z11	X12	Y12	Z12	X13	Y13	Z13	X14	Y14	Z14	X15	Y15	Z15	X16	Y16	Z16	X17	Y17	Z17	X18	Y18	Z18	X19	Y19	Z19	X20	Y20	Z20	X21	Y21	Z21	X22	Y22	Z22	X23	Y23	Z23	X24	Y24	Z24	X25	Y25	Z25	X26	Y26	Z26	X27	Y27	Z27	X28	Y28	Z28	X29	Y29	Z29	X30	Y30	Z30	X31	Y31	Z31	X32	Y32	Z32	X33	Y33	Z33	

18	32.596714285714	788.885237164370	1014.935785483179	403.719838988459	1028.100518742971	1427.595201682206	242.935592031660	1084.259167117938	1363.496030999277	425.390510378629	966.645753372838	1449.573275358289	570.981180871036	965.590852147114	1496.669823976262	390.444860015478	995.818355411641	949.869699976992	560.925414317330	1025.627496459983	959.210408263363	286.403456813544	1070.680492776239	774.714306073046	539.233696413346	1021.384579335109	663.101770976193	621.282434918448	1105.325228817068	615.409700257843	544.036275328864	1135.553851632349	532.452008113447	568.197999135350	1049.593490242374	741.220535663969	323.681113935911	952.480760806610	620.356956769691	256.538018357747	1032.479938710805	549.297326961353	334.302534622507	1027.290220223334	480.681109162534	345.100608167150	996.311676670966	409.079251964775	338.261231586802	902.377181845571	297.600828910422	287.691773554138	940.084757659997	187.381615775451	367.527690647975	1117.659686240154	444.164653816871	586.825110660899	1061.947457155129	340.875856426373	665.361229760039	1123.517974451868	245.442610701583	619.337922303074	1018.826057823897	62.714419290193	616.065665935560	1188.950119044899	129.257276254647	640.461593476402	1109.003929483696	58.333704396967	681.323464157308	1312.374801498528	86.674799468203	655.745626467666	803.956166118622	37.922282550865	414.429299799453	876.520304056018	35.420932475889	332.213420551883	960.475048245752	95.174404499752	358.200806860323	1088.360341598835	45.012953070194	327.657339309102	1155.268839240824	1117.728162766809	107.600579165713	1403.628715760118	1083.851931258200	168.089360267090	782.716414515283	1161.550111219790	680.717833637957	755.884765756652	901.781512607800	700.913967683700	
19	32.618285714286	790.064429972807	1015.597162811457	405.285296464140	1030.830135755173	1427.632956092805	245.818125137053	1085.570963438076	1363.737017372285	428.725404014108	966.822900039060	1450.382914918214	573.203989962571	967.223311395430	1496.819268064570	392.814661851024	995.683358161175	949.551317437638	563.657210088436	1027.420590086360	959.360806678108	289.605122927491	1069.404810124392	773.476041716161	542.501387384816	1017.849847351769	661.788744981981	623.509458508066	1102.419807613512	613.908140170673	547.371683502628	1131.012157697478	531.132646429844	570.886604093844	1048.551620035594	740.528255416444	325.535541167585	949.692366119603	621.130680930566	257.682244470068	1028.558035832766	548.728975123153	335.065602330251	1022.415320404184	480.410173762435	345.714864840480	991.740237039008	409.347202372039	338.645563307844	897.798206579903	297.967801073476	287.823760731076	935.619431728997	187.554680468057	367.534610181042	1113.655407367379	442.740175633351	589.289343192539	1058.044517706500	339.219330375174	667.342324675364	1119.932478181803	244.108819328194	621.250311169571	1014.930593070164	63.124779704066	616.952374771943	1185.871288971940	126.283093026473	642.001623680079	1104.785561416616	56.870470809129	682.322780626826	1308.338070503012	81.319682805421	657.199024254467	799.607655874466	37.950440909955	414.395599310606	872.176848384486	35.385030790892	332.192703855758	956.180577021816	95.112735126018	358.150130568234	1084.078401976226	44.725922064034	327.691940347201	1161.705921417123	1120.664385112786	109.880840453829	1411.049203830894	1106.257310259128	170.752365037550	782.051503146392	1162.852915958354	681.537739746830	762.368228372252	902.004194339656	700.081510197878	
20	32.639857142857	791.500206621833	1015.679265858833	407.427061099225	1033.014543749887	1427.319704810733	249.008789287314	1086.897855428190	1363.633172617439	432.186832893359	967.351997481803	1450.639496484246	575.928568475660	968.738351197823	1496.574543714421	395.652290302951	996.161733334067	948.678715909477	566.357671472014	1029.125386484211	959.321208103594	292.531999032980	1068.800571760123	771.582007431145	545.754206160582	1014.668771363086	659.749807556740	625.457641030037	1100.021481492536	611.788084325895	550.527035244274	1126.661547020129	528.955156214659	573.306790420291	1048.212087580921	739.730289658334	327.327356529411	947.728267260765	621.626725200393	258.985159834733	1025.662500349223	548.016973537337	335.875726578279	1018.686563720508	479.914905128531	346.418554955156	988.075247547519	409.324591543265	339.171503349333	893.840931193670	298.297693658280	288.027663934382	931.472707175056	187.594578690109	367.585732658006	1109.325840532070	440.362313673775	591.523330051545	1053.052474785348	337.068317437632	669.078918539582	1114.508888269763	241.877001534553	622.944383924968	1007.922875062278	63.234086049085	617.739147281361	1179.869379839929	122.515714038646	643.404716734485	1097.359104094039	55.144789372364	683.423104590254	1301.239556795580	74.849681260692	658.962317570181	795.263931115879	37.986997729730	414.344203040940	867.845154930460	35.345038986858	332.162399261878	951.913783209267	95.038841780243	358.106379298638	1079.819165276566	44.381382269851	327.728894787550	1167.202207966619	1122.750699493348	112.812454436579	1416.369650184073	1126.922396762847	173.504851543045	782.776416963237	1162.862537071971	683.039370998406	771.183153146769	900.998353020111	699.618382556853	
21	32.661428571429	793.208560664186	1015.293199892148	410.110610647454	1034.717878631232	1426.768802821647	252.517217739501	1088.271324475049	1363.279389435318	435.799064287240	968.238963855696	1450.431155060962	579.168911130684	970.161641459884	1496.034538967940	398.972119869316	997.242717711709	947.374058213647	569.072924132627	1030.850486162796	959.138315381279	295.316938204447	1068.750702261662	769.046306554822	549.043446847050	1011.764615952826	657.083113187402	627.204599309647	1097.947505221151	609.084558758358	553.479608953130	1122.384848954015	526.053614285658	575.430246796958	1048.555447451405	738.859261911237	329.159184647910	946.586357201173	621.879217605845	260.492637948526	1023.758214119343	547.188153911972	336.820212203886	1016.055710571945	479.217483446733	347.285855184732	985.268704707382	409.040532539684	339.891400433751	890.481664126971	298.614249775111	288.341972645854	927.630567813247	187.520371315161	367.697906693176	1104.736558173402	437.196019369823	593.493583764081	1047.314829315437	334.408101032257	670.587688970793	1107.791989144905	238.840786629477	624.355159343583	998.785222254812	62.745705803825	618.436957718742	1171.762268859729	118.228886854881	644.553872250874	1087.783574538210	53.120755157537	684.560510455303	1292.085704267628	67.933868005438	660.805188683187	790.924117752670	38.040012228657	414.264368037145	863.528164691736	35.305061524504	332.120631505487	947.676250177322	94.959892152116	358.066859895216	1075.581076892443	43.986445668626	327.767892845434	1171.640193641119	1124.026932464679	116.287559964877	1419.712163988865	1145.416261151906	176.313990722530	784.742899344731	1161.799296831917	685.287376483522	782.035207441894	899.171501020852	699.728476491389	
22	32.683000000000	795.186893784590	1014.577548795230	413.296708700133	1036.040015577769	1426.097920449195	256.343063172287	1089.726516018602	1362.779054928284	439.584654370723	969.480196251530	1449.873516024551	582.913465226147	971.532082622450	1495.311665180382	402.764358930589	998.880388860722	945.787178825405	571.870855038834	1032.678072740230	958.864322776096	298.105506733947	1069.120681478077	765.950574758447	552.413122579553	1009.099342753154	653.945637204320	628.852208883893	1096.040778864881	605.896786475609	556.212964611217	1118.125650932550	522.622523966754	577.252787146072	1049.499835071719	737.949877983810	331.151915395905	946.202391596070	621.940497170024	262.246024559504	1022.735023888669	546.279728716152	337.984740105536	1014.392865985463	478.356718949890	348.380157963957	983.210661547328	408.546862793541	340.843565442797	887.650509080157	298.948199302954	288.799926468475	924.058892333334	187.363544206796	367.882146599576	1100.002487504768	433.475710453239	595.188180845636	1041.226814554021	331.309958227933	671.897899163773	1100.371016125838	235.194059225006	625.436949621851	988.544450807370	61.518978590458	619.047073598435	1162.425319578074	113.773730847756	645.361276932154	1077.152450259912	50.850849703418	685.659968122820	1281.911270574903	61.262017646154	662.505153224400	786.587038686010	38.122360402273	414.145363227287	859.228811954699	35.272141965707	332.065751517470	943.469485044081	94.885023184584	358.026891536495	1071.360981502324	43.551688685368	327.807978727396	1174.942709459989	1124.557921624572	120.180118042822	1421.295740266654	1161.357398400053	179.155205257935	787.782138968735	1159.918609896068	688.301930338291	794.635718285998	896.946714595928	700.616401976207	
